HIERARCHY
ROOT Hips
{
	OFFSET 0.000000 100.481300 0.000000
	CHANNELS 6 Xposition Yposition Zposition Xrotation Yrotation Zrotation
	JOINT Spine
	{
		OFFSET -0.279200 12.230698 -2.892100
		CHANNELS 3 Xrotation Yrotation Zrotation
		JOINT Spine1
		{
			OFFSET -0.325700 14.269203 -3.374200
			CHANNELS 3 Xrotation Yrotation Zrotation
			JOINT Spine2
			{
				OFFSET -0.372300 16.307602 -0.352600
				CHANNELS 3 Xrotation Yrotation Zrotation
				JOINT Neck
				{
					OFFSET -0.418800 17.814194 8.416900
					CHANNELS 3 Xrotation Yrotation Zrotation
					JOINT Head
					{
						OFFSET 0.000000 7.031097 3.806800
						CHANNELS 3 Xrotation Yrotation Zrotation
						JOINT HeadTop_End
						{
							OFFSET 0.000000 24.646606 12.978600
							CHANNELS 3 Xrotation Yrotation Zrotation
							End Site
							{
								OFFSET 0.000000 27.854965 0.000000
							}
						}
					}
				}
				JOINT LeftShoulder
				{
					OFFSET 16.952999 14.495407 -7.737500
					CHANNELS 3 Xrotation Yrotation Zrotation
					JOINT LeftArm
					{
						OFFSET 9.308998 -2.777710 0.208600
						CHANNELS 3 Xrotation Yrotation Zrotation
						JOINT LeftForeArm
						{
							OFFSET 29.972298 0.000000 0.000000
							CHANNELS 3 Xrotation Yrotation Zrotation
							JOINT LeftHand
							{
								OFFSET 26.026505 0.000000 0.000000
								CHANNELS 3 Xrotation Yrotation Zrotation
								JOINT LeftHandThumb1
								{
									OFFSET 12.240501 -7.147949 9.207150
									CHANNELS 3 Xrotation Yrotation Zrotation
									JOINT LeftHandThumb2
									{
										OFFSET 4.138618 -2.389435 2.389433
										CHANNELS 3 Xrotation Yrotation Zrotation
										JOINT LeftHandThumb3
										{
											OFFSET 2.726913 -1.574387 1.574386
											CHANNELS 3 Xrotation Yrotation Zrotation
											JOINT LeftHandThumb4
											{
												OFFSET 3.941010 -2.275345 2.275342
												CHANNELS 3 Xrotation Yrotation Zrotation
												End Site
												{
													OFFSET -0.005798 5.087799 0.009903
												}
											}
										}
									}
								}
								JOINT LeftHandIndex1
								{
									OFFSET 24.424698 -1.985611 5.953459
									CHANNELS 3 Xrotation Yrotation Zrotation
									JOINT LeftHandIndex2
									{
										OFFSET 6.426697 0.000000 0.000000
										CHANNELS 3 Xrotation Yrotation Zrotation
										JOINT LeftHandIndex3
										{
											OFFSET 5.337898 0.000000 0.000000
											CHANNELS 3 Xrotation Yrotation Zrotation
											JOINT LeftHandIndex4
											{
												OFFSET 4.409401 0.000000 0.000000
												CHANNELS 3 Xrotation Yrotation Zrotation
												End Site
												{
													OFFSET 0.000000 4.409363 0.014373
												}
											}
										}
									}
								}
								JOINT LeftHandMiddle1
								{
									OFFSET 23.810104 0.000000 0.000000
									CHANNELS 3 Xrotation Yrotation Zrotation
									JOINT LeftHandMiddle2
									{
										OFFSET 7.176498 0.000000 0.000000
										CHANNELS 3 Xrotation Yrotation Zrotation
										JOINT LeftHandMiddle3
										{
											OFFSET 6.774902 0.000000 0.000000
											CHANNELS 3 Xrotation Yrotation Zrotation
											JOINT LeftHandMiddle4
											{
												OFFSET 5.403328 0.000000 0.000000
												CHANNELS 3 Xrotation Yrotation Zrotation
												End Site
												{
													OFFSET -0.027702 5.403244 0.017414
												}
											}
										}
									}
								}
								JOINT LeftHandRing1
								{
									OFFSET 22.908401 -0.839279 -6.020567
									CHANNELS 3 Xrotation Yrotation Zrotation
									JOINT LeftHandRing2
									{
										OFFSET 6.337502 0.000000 0.000000
										CHANNELS 3 Xrotation Yrotation Zrotation
										JOINT LeftHandRing3
										{
											OFFSET 5.779297 0.000000 0.000000
											CHANNELS 3 Xrotation Yrotation Zrotation
											JOINT LeftHandRing4
											{
												OFFSET 4.965698 0.000000 0.000000
												CHANNELS 3 Xrotation Yrotation Zrotation
												End Site
												{
													OFFSET 0.000000 4.965668 0.016186
												}
											}
										}
									}
								}
								JOINT LeftHandPinky1
								{
									OFFSET 20.037003 -1.530319 -10.950146
									CHANNELS 3 Xrotation Yrotation Zrotation
									JOINT LeftHandPinky2
									{
										OFFSET 5.254700 0.000000 0.000000
										CHANNELS 3 Xrotation Yrotation Zrotation
										JOINT LeftHandPinky3
										{
											OFFSET 4.810204 0.000000 0.000000
											CHANNELS 3 Xrotation Yrotation Zrotation
											JOINT LeftHandPinky4
											{
												OFFSET 3.647202 0.000000 0.000000
												CHANNELS 3 Xrotation Yrotation Zrotation
												End Site
												{
													OFFSET 0.000000 3.647186 0.011889
												}
											}
										}
									}
								}
							}
						}
					}
				}
				JOINT RightShoulder
				{
					OFFSET -15.141001 14.495407 -7.737500
					CHANNELS 3 Xrotation Yrotation Zrotation
					JOINT RightArm
					{
						OFFSET -9.308998 -2.777710 0.208500
						CHANNELS 3 Xrotation Yrotation Zrotation
						JOINT RightForeArm
						{
							OFFSET -29.972300 0.000000 0.000000
							CHANNELS 3 Xrotation Yrotation Zrotation
							JOINT RightHand
							{
								OFFSET -26.026505 0.000000 0.000000
								CHANNELS 3 Xrotation Yrotation Zrotation
								JOINT RightHandThumb1
								{
									OFFSET -12.240601 -7.148026 9.207092
									CHANNELS 3 Xrotation Yrotation Zrotation
									JOINT RightHandThumb2
									{
										OFFSET -4.138618 -2.389435 2.389433
										CHANNELS 3 Xrotation Yrotation Zrotation
										JOINT RightHandThumb3
										{
											OFFSET -2.726974 -1.574417 1.574421
											CHANNELS 3 Xrotation Yrotation Zrotation
											JOINT RightHandThumb4
											{
												OFFSET -3.941010 -2.275345 2.275343
												CHANNELS 3 Xrotation Yrotation Zrotation
												End Site
												{
													OFFSET 0.005814 5.087799 0.009927
												}
											}
										}
									}
								}
								JOINT RightHandIndex1
								{
									OFFSET -24.424698 -1.985657 5.953444
									CHANNELS 3 Xrotation Yrotation Zrotation
									JOINT RightHandIndex2
									{
										OFFSET -6.426697 0.000000 0.000000
										CHANNELS 3 Xrotation Yrotation Zrotation
										JOINT RightHandIndex3
										{
											OFFSET -5.337898 0.000000 0.000000
											CHANNELS 3 Xrotation Yrotation Zrotation
											JOINT RightHandIndex4
											{
												OFFSET -4.409401 0.000000 0.000000
												CHANNELS 3 Xrotation Yrotation Zrotation
												End Site
												{
													OFFSET 0.000000 4.409363 0.014408
												}
											}
										}
									}
								}
								JOINT RightHandMiddle1
								{
									OFFSET -23.810097 0.000000 0.000000
									CHANNELS 3 Xrotation Yrotation Zrotation
									JOINT RightHandMiddle2
									{
										OFFSET -7.176498 0.000000 0.000000
										CHANNELS 3 Xrotation Yrotation Zrotation
										JOINT RightHandMiddle3
										{
											OFFSET -6.774902 0.000000 0.000000
											CHANNELS 3 Xrotation Yrotation Zrotation
											JOINT RightHandMiddle4
											{
												OFFSET -5.403328 0.000000 0.000000
												CHANNELS 3 Xrotation Yrotation Zrotation
												End Site
												{
													OFFSET 0.027702 5.403244 0.017457
												}
											}
										}
									}
								}
								JOINT RightHandRing1
								{
									OFFSET -22.908302 -0.839325 -6.020576
									CHANNELS 3 Xrotation Yrotation Zrotation
									JOINT RightHandRing2
									{
										OFFSET -6.337502 0.000000 0.000000
										CHANNELS 3 Xrotation Yrotation Zrotation
										JOINT RightHandRing3
										{
											OFFSET -5.779297 0.000000 0.000000
											CHANNELS 3 Xrotation Yrotation Zrotation
											JOINT RightHandRing4
											{
												OFFSET -4.965698 0.000000 0.000000
												CHANNELS 3 Xrotation Yrotation Zrotation
												End Site
												{
													OFFSET 0.000000 4.965668 0.016226
												}
											}
										}
									}
								}
								JOINT RightHandPinky1
								{
									OFFSET -20.037003 -1.530334 -10.950259
									CHANNELS 3 Xrotation Yrotation Zrotation
									JOINT RightHandPinky2
									{
										OFFSET -5.254700 0.000000 0.000000
										CHANNELS 3 Xrotation Yrotation Zrotation
										JOINT RightHandPinky3
										{
											OFFSET -4.810204 0.000000 0.000000
											CHANNELS 3 Xrotation Yrotation Zrotation
											JOINT RightHandPinky4
											{
												OFFSET -3.647202 0.000000 0.000000
												CHANNELS 3 Xrotation Yrotation Zrotation
												End Site
												{
													OFFSET 0.000000 3.647186 0.011917
												}
											}
										}
									}
								}
							}
						}
					}
				}
			}
		}
	}
	JOINT LeftUpLeg
	{
		OFFSET 15.427100 -6.655098 0.678600
		CHANNELS 3 Xrotation Yrotation Zrotation
		JOINT LeftLeg
		{
			OFFSET 4.081073 -39.591068 13.024000
			CHANNELS 3 Xrotation Yrotation Zrotation
			JOINT LeftFoot
			{
				OFFSET -4.081074 -37.707932 -15.979700
				CHANNELS 3 Xrotation Yrotation Zrotation
				JOINT LeftToeBase
				{
					OFFSET 5.346399 -15.068900 20.645000
					CHANNELS 3 Xrotation Yrotation Zrotation
					JOINT LeftToe_End
					{
						OFFSET 2.754700 0.931300 11.300900
						CHANNELS 3 Xrotation Yrotation Zrotation
						End Site
						{
							OFFSET 0.000000 11.669021 0.000000
						}
					}
				}
			}
		}
	}
	JOINT RightUpLeg
	{
		OFFSET -15.569500 -6.655098 0.678600
		CHANNELS 3 Xrotation Yrotation Zrotation
		JOINT RightLeg
		{
			OFFSET -4.081825 -39.591045 13.023800
			CHANNELS 3 Xrotation Yrotation Zrotation
			JOINT RightFoot
			{
				OFFSET 4.081824 -37.707954 -15.979600
				CHANNELS 3 Xrotation Yrotation Zrotation
				JOINT RightToeBase
				{
					OFFSET -5.346400 -15.068900 20.645000
					CHANNELS 3 Xrotation Yrotation Zrotation
					JOINT RightToe_End
					{
						OFFSET -2.754700 0.931300 11.300900
						CHANNELS 3 Xrotation Yrotation Zrotation
						End Site
						{
							OFFSET 0.000000 11.669021 0.000000
						}
					}
				}
			}
		}
	}
}
MOTION
Frames: 4
Frame Time: 0.033333
3.185977 88.808113 91.410110 0.086331 -27.457594 0.450836 15.477584 -5.914227 4.705269 4.453157 -4.126569 -0.714801 4.314873 -4.352487 -0.826881 14.345088 13.445749 -7.055320 21.146447 10.144736 6.343933 -0.000001 -0.000000 -0.000001 0.296969 -11.267983 -12.333876 -48.649948 -18.640626 -42.747938 0.000002 -55.547961 -0.000002 -137.383449 -11.805243 6.892659 1.567998 0.456390 2.719342 19.473190 -1.474911 7.636921 -4.536202 -9.613087 1.492967 0.000001 0.000001 0.000000 -1.882816 2.129432 -39.817011 2.947111 5.081723 -60.200529 0.514388 2.402396 -24.167395 0.000003 0.000002 -0.000002 0.405918 5.507055 -52.453162 3.387149 5.308622 -65.057449 0.282014 1.797453 -17.832377 0.000001 0.000002 0.000000 -0.074372 5.736796 -61.061420 4.422099 5.674471 -75.840419 0.582671 2.548980 -25.747979 -0.000001 -0.000001 -0.000000 2.216811 7.072471 -64.435431 4.422641 5.674620 -75.845761 1.294130 3.673926 -38.798473 0.000000 -0.000001 0.000000 0.519448 5.003563 11.035015 -37.482562 54.765071 61.205872 0.000206 84.754349 -0.000192 -31.899524 -21.042307 5.144661 8.377126 -4.904140 11.021992 21.620212 -18.183879 -18.379207 -0.702882 -49.821223 -32.535138 0.000001 0.000000 0.000002 -1.101426 1.407141 15.159518 1.422367 -3.352195 45.974106 0.615884 -2.316435 29.773112 -0.000000 -0.000000 0.000001 3.413050 -7.186254 51.650242 6.296811 -4.359563 110.634673 0.248695 -1.503058 18.790267 -0.000001 -0.000000 -0.000002 -3.349043 -2.600418 57.010561 5.440860 -4.590904 99.698147 1.689410 -3.590699 50.382248 0.000000 0.000000 -0.000001 -3.996443 -3.303933 64.593850 4.058851 -4.618663 82.610516 2.315545 -4.026783 59.787228 0.000000 -0.000000 -0.000001 5.598374 16.769924 -8.689432 29.624801 2.543284 -2.232257 -22.453528 -3.635713 7.869452 -12.430262 -0.006631 0.082472 -0.000000 -0.000000 -0.000000 -41.360958 -1.866085 14.138895 15.598154 -12.403460 -7.018925 -6.528757 -1.803309 8.258287 -6.052598 0.000006 0.000003 0.000001 0.000001 0.000000 
2.911032 88.234230 95.918289 -1.540441 -25.759942 -0.451379 14.487275 -6.176319 4.499731 3.879846 -4.103624 -0.292369 3.779255 -4.270817 -0.387575 14.751773 13.067603 -7.296258 21.786398 9.201957 5.558423 -0.000003 0.000000 0.000002 0.283391 -11.601081 -12.465163 -49.157865 -17.287731 -41.617681 0.000022 -57.597838 0.000015 -134.421401 -11.753232 9.632989 1.567997 0.456390 2.719340 19.473189 -1.474911 7.636927 -4.536199 -9.613082 1.492964 -0.000001 -0.000001 0.000001 -1.882818 2.129434 -39.817011 2.947113 5.081730 -60.200529 0.514380 2.402397 -24.167392 -0.000000 0.000001 0.000000 0.405916 5.507051 -52.453158 3.387148 5.308619 -65.057436 0.282013 1.797451 -17.832381 0.000000 0.000001 0.000001 -0.074374 5.736797 -61.061420 4.422104 5.674470 -75.840412 0.582669 2.548980 -25.747983 -0.000000 -0.000002 -0.000002 2.216811 7.072468 -64.435431 4.422640 5.674620 -75.845761 1.294134 3.673925 -38.798473 0.000000 0.000000 -0.000001 0.524311 4.741636 10.768896 -37.542046 56.366611 61.333746 0.000226 84.122502 -0.000190 -34.782158 -18.563155 3.345302 8.377125 -4.904140 11.021997 21.620212 -18.183885 -18.379207 -0.702890 -49.821220 -32.535135 -0.000001 -0.000000 0.000001 -1.101426 1.407141 15.159518 1.422367 -3.352195 45.974106 0.615884 -2.316434 29.773112 0.000000 -0.000000 0.000000 3.413049 -7.186256 51.650242 6.296811 -4.359563 110.634673 0.248695 -1.503057 18.790262 0.000000 0.000000 0.000003 -3.349043 -2.600419 57.010558 5.440860 -4.590903 99.698147 1.689410 -3.590697 50.382255 -0.000000 -0.000000 -0.000002 -3.996443 -3.303934 64.593850 4.058852 -4.618664 82.610516 2.315545 -4.026784 59.787228 -0.000000 0.000000 -0.000003 9.781053 18.533525 -9.317674 31.281020 1.133049 -1.624113 -20.792083 -5.184716 8.628108 -17.990718 -0.036413 0.268504 -0.000000 -0.000000 -0.000000 -39.158352 -2.867800 15.034758 14.736090 -11.097147 -8.862828 0.111766 -1.426260 -0.561283 -8.247979 -0.000006 -0.000001 0.000001 -0.000003 -0.000000 
2.655049 87.677879 100.575699 -3.121811 -24.463593 -1.368577 13.508904 -6.548174 4.386809 3.143706 -4.019774 0.161355 3.080549 -4.131527 0.088549 14.790322 12.788516 -7.318871 21.782873 8.433387 4.721805 0.000002 0.000001 -0.000000 0.271736 -11.862567 -12.582450 -50.003111 -16.930526 -40.979212 0.000007 -58.147586 0.000010 -131.676608 -10.535008 11.800181 1.567997 0.456387 2.719342 19.473192 -1.474909 7.636926 -4.536200 -9.613083 1.492965 -0.000000 0.000000 -0.000000 -1.882819 2.129430 -39.817011 2.947112 5.081726 -60.200529 0.514382 2.402396 -24.167388 0.000001 0.000001 0.000001 0.405917 5.507053 -52.453162 3.387149 5.308621 -65.057443 0.282014 1.797452 -17.832384 -0.000001 -0.000003 0.000002 -0.074373 5.736799 -61.061413 4.422104 5.674472 -75.840419 0.582671 2.548983 -25.747983 0.000002 -0.000002 -0.000001 2.216810 7.072469 -64.435431 4.422641 5.674620 -75.845767 1.294132 3.673925 -38.798473 0.000000 -0.000000 0.000000 0.527145 4.495437 10.554318 -36.547506 57.990553 60.615108 -0.000229 83.926448 0.000229 -37.637170 -15.865329 0.518844 8.377125 -4.904139 11.021999 21.620212 -18.183885 -18.379207 -0.702882 -49.821220 -32.535142 -0.000003 0.000003 0.000000 -1.101426 1.407141 15.159518 1.422367 -3.352195 45.974109 0.615883 -2.316435 29.773112 0.000000 -0.000000 0.000000 3.413050 -7.186255 51.650239 6.296812 -4.359564 110.634667 0.248696 -1.503057 18.790265 -0.000001 0.000000 0.000000 -3.349043 -2.600418 57.010561 5.440860 -4.590904 99.698147 1.689410 -3.590697 50.382252 0.000000 0.000000 0.000001 -3.996443 -3.303933 64.593850 4.058852 -4.618663 82.610516 2.315545 -4.026784 59.787228 0.000000 0.000000 -0.000003 13.739140 20.571147 -9.676069 33.197055 -0.758977 -1.048073 -17.413924 -6.305431 9.786309 -25.201066 -0.150182 0.765697 -0.000000 -0.000000 0.000000 -36.384875 -3.263583 15.161319 13.297723 -9.895907 -9.673423 8.515503 -1.798761 -5.573623 -8.727837 0.000005 -0.000006 -0.000000 -0.000000 0.000001 
2.269571 85.985443 106.026405 -4.653873 -24.354155 -1.387556 12.567899 -7.268769 3.951959 2.406937 -3.872713 0.553698 2.371378 -3.937511 0.508858 14.637416 12.661683 -7.239035 21.362632 7.989120 3.987806 -0.000001 0.000000 0.000001 0.258199 -11.966782 -12.694684 -50.526792 -16.891362 -40.733787 0.000004 -57.896945 0.000014 -129.678258 -8.818245 13.185398 1.567997 0.456392 2.719340 19.473192 -1.474914 7.636925 -4.536200 -9.613081 1.492964 0.000002 -0.000000 0.000000 -1.882818 2.129432 -39.817015 2.947112 5.081726 -60.200529 0.514383 2.402396 -24.167390 0.000001 -0.000001 0.000001 0.405917 5.507055 -52.453158 3.387151 5.308622 -65.057443 0.282010 1.797451 -17.832384 -0.000001 0.000000 0.000003 -0.074374 5.736798 -61.061420 4.422100 5.674471 -75.840419 0.582668 2.548980 -25.747981 0.000001 0.000001 -0.000001 2.216811 7.072469 -64.435431 4.422640 5.674619 -75.845761 1.294128 3.673923 -38.798473 0.000000 0.000001 -0.000000 0.528065 4.337630 10.491937 -34.787755 59.478804 59.484056 -0.000336 84.048162 0.000260 -39.811308 -13.654526 -2.484916 8.377125 -4.904139 11.021997 21.620212 -18.183883 -18.379207 -0.702888 -49.821217 -32.535131 -0.000001 0.000002 -0.000001 -1.101426 1.407141 15.159519 1.422367 -3.352196 45.974099 0.615884 -2.316434 29.773112 -0.000000 0.000000 -0.000000 3.413050 -7.186255 51.650239 6.296811 -4.359563 110.634667 0.248694 -1.503056 18.790264 0.000001 0.000000 -0.000003 -3.349043 -2.600418 57.010561 5.440860 -4.590904 99.698147 1.689410 -3.590698 50.382252 -0.000001 -0.000000 -0.000003 -3.996443 -3.303933 64.593850 4.058852 -4.618663 82.610516 2.315546 -4.026784 59.787228 0.000000 -0.000000 0.000002 18.328509 22.963984 -11.376014 35.993465 -2.999660 -0.138899 -13.639247 -6.925905 10.894351 -33.680373 -0.532210 1.878263 0.000000 0.000000 0.000000 -36.182336 -3.248953 14.098907 19.349279 -9.846981 -9.849272 10.181292 -1.228264 -7.356292 -8.456828 -0.000003 -0.000001 0.000000 0.000001 0.000001 
